<svg xmlns="http://www.w3.org/2000/svg" width="16" height="16" viewBox="0 0 16 16">
  <defs>
    <linearGradient id="g16" x1="0%" y1="0%" x2="100%" y2="100%">
      <stop offset="0%" stop-color="#667eea"/>
      <stop offset="100%" stop-color="#764ba2"/>
    </linearGradient>
  </defs>
  <rect x="2" y="2" width="12" height="12" rx="3" fill="url(#g16)"/>
  <rect x="4" y="5" width="3" height="2" rx="0.5" fill="white" opacity="0.9"/>
  <rect x="4" y="8" width="5" height="2" rx="0.5" fill="white" opacity="0.7"/>
  <rect x="4" y="11" width="4" height="2" rx="0.5" fill="white" opacity="0.5"/>
  <rect x="8" y="5" width="4" height="2" rx="0.5" fill="white" opacity="0.8"/>
  <rect x="9" y="8" width="3" height="2" rx="0.5" fill="white" opacity="0.6"/>
  <rect x="8" y="11" width="4" height="2" rx="0.5" fill="white" opacity="0.4"/>
</svg>
<svg xmlns="http://www.w3.org/2000/svg" width="16" height="16" viewBox="0 0 16 16">
  <rect x="1" y="3" width="14" height="11" rx="2" fill="#0060df"/>
  <rect x="3" y="1" width="5" height="4" rx="1" fill="#0060df"/>
  <rect x="9" y="1" width="5" height="4" rx="1" fill="#0060df"/>
  <text x="8" y="11" text-anchor="middle" font-family="Arial,sans-serif" font-size="6" font-weight="bold" fill="white">TT</text>
</svg>
